<?xml version="1.0" encoding="UTF-8" standalone="no"?>
<svg xmlns="http://www.w3.org/2000/svg" width="1100" height="720">
  <style>
    .box { fill:#ffffff; stroke:#000000; stroke-width:2; rx:10; ry:10; }
    .title { font-family: Arial, sans-serif; font-size: 18px; font-weight: bold; }
    .text { font-family: Arial, sans-serif; font-size: 14px; }
    .arrow { stroke:#000000; stroke-width:2; marker-end:url(#arrowhead); fill:none; }
  </style>
  <defs>
    <marker id="arrowhead" markerWidth="10" markerHeight="7" refX="10" refY="3.5" orient="auto">
      <polygon points="0 0, 10 3.5, 0 7" />
    </marker>
  </defs>

  <text x="550" y="40" text-anchor="middle" class="title">Multi‑Engine AI Architecture</text>

  <!-- Layer boxes -->
  <rect x="50" y="70"  width="1000" height="80" class="box"/>
  <rect x="50" y="170" width="1000" height="80" class="box"/>
  <rect x="50" y="270" width="1000" height="100" class="box"/>
  <rect x="50" y="390" width="1000" height="80" class="box"/>
  <rect x="50" y="490" width="1000" height="80" class="box"/>
  <rect x="50" y="590" width="1000" height="80" class="box"/>

  <!-- Layer titles -->
  <text x="70" y="115" class="title">1. Input Layer – Perception Hub</text>
  <text x="70" y="215" class="title">2. Integration Layer – Cognitive Mesh</text>
  <text x="70" y="320" class="title">3. Emergent Reasoning Core</text>
  <text x="70" y="435" class="title">4. Specialized Subsystems</text>
  <text x="70" y="535" class="title">5. Output Layer – Unified Persona</text>
  <text x="70" y="635" class="title">6. Risk & Reward Framework</text>

  <!-- Layer details -->
  <text x="70" y="140" class="text">Google (multimodal), Anthropic (cautious), xAI (real‑time), OpenAI (reasoning)</text>
  <text x="70" y="240" class="text">Orchestrator • Cross‑model attention • Translation matrix • Hallucination filters</text>
  <text x="70" y="345" class="text">Consensus • Conflict resolver • Self‑reflection loop • Emergence telemetry</text>
  <text x="70" y="460" class="text">DeepMind: planning • Anthropic: alignment • OpenAI: code/creativity • xAI: trends</text>
  <text x="70" y="560" class="text">Persona manager • Dynamic style • Trust layer (provenance)</text>
  <text x="70" y="660" class="text">Governance • Kill‑switches • Red‑team sims • Transparency</text>

  <!-- Arrows -->
  <line x1="550" y1="150" x2="550" y2="170" class="arrow"/>
  <line x1="550" y1="250" x2="550" y2="270" class="arrow"/>
  <line x1="550" y1="370" x2="550" y2="390" class="arrow"/>
  <line x1="550" y1="470" x2="550" y2="490" class="arrow"/>
  <line x1="550" y1="570" x2="550" y2="590" class="arrow"/>
</svg>
